<svg xmlns="http://www.w3.org/2000/svg" xmlns:xlink="http://www.w3.org/1999/xlink" width="518" zoomAndPan="magnify" viewBox="0 0 388.5 64.499998" height="86" preserveAspectRatio="xMidYMid meet" version="1.0"><defs><g/></defs><g fill="#e0e0e0" fill-opacity="1"><g transform="translate(1.904215, 62.437806)"><g><path d="M 6.375 0 L 6.375 -60.09375 L 44.8125 -60.09375 L 44.8125 -52.203125 L 15.5625 -52.203125 L 15.5625 -34.328125 L 42.71875 -34.328125 L 42.71875 -26.5 L 15.5625 -26.5 L 15.5625 -7.90625 L 45.015625 -7.90625 L 45.015625 0 Z M 6.375 0 "/></g></g></g><g fill="#e0e0e0" fill-opacity="1"><g transform="translate(44.456051, 62.437806)"><g><path d="M 6.375 0 L 6.375 -60.09375 L 19.71875 -60.09375 L 32.953125 -25.453125 C 33.304688 -24.453125 33.722656 -23.179688 34.203125 -21.640625 C 34.691406 -20.097656 35.191406 -18.4375 35.703125 -16.65625 C 36.210938 -14.882812 36.703125 -13.148438 37.171875 -11.453125 C 37.640625 -9.765625 38.035156 -8.257812 38.359375 -6.9375 L 36.390625 -6.9375 C 36.734375 -8.195312 37.132812 -9.664062 37.59375 -11.34375 C 38.050781 -13.03125 38.535156 -14.757812 39.046875 -16.53125 C 39.554688 -18.3125 40.050781 -19.988281 40.53125 -21.5625 C 41.019531 -23.132812 41.453125 -24.429688 41.828125 -25.453125 L 54.8125 -60.09375 L 68.203125 -60.09375 L 68.203125 0 L 59.140625 0 L 59.140625 -32.4375 C 59.140625 -33.695312 59.148438 -35.171875 59.171875 -36.859375 C 59.203125 -38.554688 59.242188 -40.347656 59.296875 -42.234375 C 59.347656 -44.117188 59.394531 -46.019531 59.4375 -47.9375 C 59.476562 -49.863281 59.507812 -51.710938 59.53125 -53.484375 L 60.34375 -53.484375 C 59.75 -51.492188 59.132812 -49.484375 58.5 -47.453125 C 57.875 -45.421875 57.257812 -43.457031 56.65625 -41.5625 C 56.050781 -39.664062 55.476562 -37.929688 54.9375 -36.359375 C 54.394531 -34.785156 53.9375 -33.476562 53.5625 -32.4375 L 41.1875 0 L 33.40625 0 L 20.890625 -32.4375 C 20.492188 -33.457031 20.03125 -34.738281 19.5 -36.28125 C 18.976562 -37.832031 18.414062 -39.546875 17.8125 -41.421875 C 17.207031 -43.304688 16.570312 -45.273438 15.90625 -47.328125 C 15.25 -49.390625 14.597656 -51.441406 13.953125 -53.484375 L 14.921875 -53.484375 C 14.953125 -51.816406 14.984375 -50.039062 15.015625 -48.15625 C 15.054688 -46.28125 15.097656 -44.382812 15.140625 -42.46875 C 15.179688 -40.5625 15.222656 -38.738281 15.265625 -37 C 15.304688 -35.269531 15.328125 -33.75 15.328125 -32.4375 L 15.328125 0 Z M 6.375 0 "/></g></g></g><g fill="#e0e0e0" fill-opacity="1"><g transform="translate(112.056993, 62.437806)"><g><path d="M 15.5625 -60.09375 L 15.5625 0 L 6.375 0 L 6.375 -60.09375 Z M 15.5625 -60.09375 "/></g></g></g><g fill="#e0e0e0" fill-opacity="1"><g transform="translate(126.978173, 62.437806)"><g><path d="M 3.265625 -52.203125 L 3.265625 -60.09375 L 50.015625 -60.09375 L 50.015625 -52.203125 L 31.265625 -52.203125 L 31.265625 0 L 22.109375 0 L 22.109375 -52.203125 Z M 3.265625 -52.203125 "/></g></g></g><g fill="#e0e0e0" fill-opacity="1"><g transform="translate(173.281325, 62.437806)"><g><path d="M 6.375 0 L 6.375 -60.09375 L 15.5625 -60.09375 L 15.5625 -34.6875 L 45.34375 -34.6875 L 45.34375 -60.09375 L 54.5 -60.09375 L 54.5 0 L 45.34375 0 L 45.34375 -26.78125 L 15.5625 -26.78125 L 15.5625 0 Z M 6.375 0 "/></g></g></g><g fill="#e0e0e0" fill-opacity="1"><g transform="translate(227.127443, 62.437806)"><g><path d="M 6.375 0 L 6.375 -60.09375 L 28.234375 -60.09375 C 32.773438 -60.09375 36.597656 -59.300781 39.703125 -57.71875 C 42.816406 -56.132812 45.160156 -53.921875 46.734375 -51.078125 C 48.304688 -48.242188 49.09375 -44.972656 49.09375 -41.265625 C 49.09375 -37.523438 48.285156 -34.265625 46.671875 -31.484375 C 45.054688 -28.703125 42.6875 -26.539062 39.5625 -25 C 36.445312 -23.46875 32.601562 -22.703125 28.03125 -22.703125 L 11.65625 -22.703125 L 11.65625 -30.53125 L 27.390625 -30.53125 C 30.265625 -30.53125 32.613281 -30.953125 34.4375 -31.796875 C 36.269531 -32.648438 37.628906 -33.882812 38.515625 -35.5 C 39.410156 -37.113281 39.859375 -39.035156 39.859375 -41.265625 C 39.859375 -43.523438 39.410156 -45.472656 38.515625 -47.109375 C 37.628906 -48.753906 36.265625 -50.019531 34.421875 -50.90625 C 32.585938 -51.789062 30.21875 -52.234375 27.3125 -52.234375 L 15.5625 -52.234375 L 15.5625 0 Z M 40.65625 0 L 26.171875 -27.140625 L 36.296875 -27.140625 L 51.0625 0 Z M 40.65625 0 "/></g></g></g><g fill="#e0e0e0" fill-opacity="1"><g transform="translate(273.470932, 62.437806)"><g><path d="M 1.734375 0 L 23.234375 -60.09375 L 34.40625 -60.09375 L 56.15625 0 L 46.265625 0 L 34.5625 -33.515625 C 33.65625 -36.285156 32.65625 -39.476562 31.5625 -43.09375 C 30.476562 -46.71875 29.207031 -51.097656 27.75 -56.234375 L 29.765625 -56.234375 C 28.335938 -51.066406 27.085938 -46.65625 26.015625 -43 C 24.941406 -39.34375 23.960938 -36.179688 23.078125 -33.515625 L 11.609375 0 Z M 13.46875 -15.765625 L 13.46875 -23.4375 L 44.453125 -23.4375 L 44.453125 -15.765625 Z M 13.46875 -15.765625 "/></g></g></g><g fill="#e0e0e0" fill-opacity="1"><g transform="translate(324.372469, 62.437806)"><g><path d="M 6.375 0 L 6.375 -60.09375 L 16.859375 -60.09375 L 39.53125 -24.203125 C 40.257812 -23.097656 41.078125 -21.742188 41.984375 -20.140625 C 42.898438 -18.546875 43.875 -16.757812 44.90625 -14.78125 C 45.945312 -12.800781 46.960938 -10.695312 47.953125 -8.46875 L 46.875 -8.03125 C 46.6875 -10.15625 46.53125 -12.316406 46.40625 -14.515625 C 46.28125 -16.722656 46.195312 -18.796875 46.15625 -20.734375 C 46.125 -22.671875 46.109375 -24.269531 46.109375 -25.53125 L 46.109375 -60.09375 L 55.34375 -60.09375 L 55.34375 0 L 44.8125 0 L 24.484375 -32.109375 C 23.515625 -33.691406 22.507812 -35.359375 21.46875 -37.109375 C 20.4375 -38.859375 19.28125 -40.890625 18 -43.203125 C 16.726562 -45.515625 15.21875 -48.269531 13.46875 -51.46875 L 14.890625 -51.875 C 15.046875 -48.882812 15.175781 -46.113281 15.28125 -43.5625 C 15.394531 -41.007812 15.484375 -38.753906 15.546875 -36.796875 C 15.617188 -34.847656 15.65625 -33.296875 15.65625 -32.140625 L 15.65625 0 Z M 6.375 0 "/></g></g></g></svg>